<mxfile host="app.diagrams.net" agent="Mozilla/5.0 (X11; Linux x86_64; rv:131.0) Gecko/20100101 Firefox/131.0" version="24.8.3">
  <diagram name="Страница — 1" id="2wUbNt-Dc44eyVaSqHAd">
    <mxGraphModel dx="1702" dy="441" grid="1" gridSize="10" guides="1" tooltips="1" connect="1" arrows="1" fold="1" page="1" pageScale="1" pageWidth="827" pageHeight="1169" math="0" shadow="0">
      <root>
        <mxCell id="0" />
        <mxCell id="1" parent="0" />
        <mxCell id="MDzE1p1NJwPBbLoG7hzH-1" value="Administrátor" style="shape=umlActor;verticalLabelPosition=bottom;verticalAlign=top;html=1;outlineConnect=0;" vertex="1" parent="1">
          <mxGeometry x="560" y="230" width="30" height="60" as="geometry" />
        </mxCell>
        <mxCell id="MDzE1p1NJwPBbLoG7hzH-2" value="" style="rounded=1;whiteSpace=wrap;html=1;dashed=1;" vertex="1" parent="1">
          <mxGeometry x="-30" y="80" width="504" height="340" as="geometry" />
        </mxCell>
        <mxCell id="MDzE1p1NJwPBbLoG7hzH-3" value="Výběr období pro report" style="ellipse;whiteSpace=wrap;html=1;" vertex="1" parent="1">
          <mxGeometry x="270" y="110" width="150" height="70" as="geometry" />
        </mxCell>
        <mxCell id="MDzE1p1NJwPBbLoG7hzH-4" value="Generování reportu" style="ellipse;whiteSpace=wrap;html=1;" vertex="1" parent="1">
          <mxGeometry x="270" y="210" width="150" height="70" as="geometry" />
        </mxCell>
        <mxCell id="MDzE1p1NJwPBbLoG7hzH-5" value="Uložení nebo tisk reportu" style="ellipse;whiteSpace=wrap;html=1;" vertex="1" parent="1">
          <mxGeometry x="270" y="320" width="150" height="70" as="geometry" />
        </mxCell>
        <mxCell id="MDzE1p1NJwPBbLoG7hzH-6" value="Informovat o chybě" style="ellipse;whiteSpace=wrap;html=1;" vertex="1" parent="1">
          <mxGeometry x="-20" y="210" width="150" height="70" as="geometry" />
        </mxCell>
        <mxCell id="MDzE1p1NJwPBbLoG7hzH-7" value="" style="endArrow=classic;html=1;rounded=0;entryX=1;entryY=0.5;entryDx=0;entryDy=0;" edge="1" parent="1" target="MDzE1p1NJwPBbLoG7hzH-5">
          <mxGeometry width="50" height="50" relative="1" as="geometry">
            <mxPoint x="560" y="250" as="sourcePoint" />
            <mxPoint x="460" y="270" as="targetPoint" />
          </mxGeometry>
        </mxCell>
        <mxCell id="MDzE1p1NJwPBbLoG7hzH-8" value="" style="endArrow=classic;html=1;rounded=0;entryX=1;entryY=0.5;entryDx=0;entryDy=0;" edge="1" parent="1" target="MDzE1p1NJwPBbLoG7hzH-4">
          <mxGeometry width="50" height="50" relative="1" as="geometry">
            <mxPoint x="560" y="250" as="sourcePoint" />
            <mxPoint x="460" y="270" as="targetPoint" />
          </mxGeometry>
        </mxCell>
        <mxCell id="MDzE1p1NJwPBbLoG7hzH-9" value="" style="endArrow=classic;html=1;rounded=0;entryX=0.993;entryY=0.6;entryDx=0;entryDy=0;entryPerimeter=0;exitX=0;exitY=0.3333333333333333;exitDx=0;exitDy=0;exitPerimeter=0;" edge="1" parent="1" source="MDzE1p1NJwPBbLoG7hzH-1" target="MDzE1p1NJwPBbLoG7hzH-3">
          <mxGeometry width="50" height="50" relative="1" as="geometry">
            <mxPoint x="410" y="320" as="sourcePoint" />
            <mxPoint x="460" y="270" as="targetPoint" />
          </mxGeometry>
        </mxCell>
        <mxCell id="MDzE1p1NJwPBbLoG7hzH-10" value="" style="endArrow=classic;html=1;rounded=0;dashed=1;entryX=1;entryY=0.5;entryDx=0;entryDy=0;exitX=0;exitY=0.5;exitDx=0;exitDy=0;" edge="1" parent="1" source="MDzE1p1NJwPBbLoG7hzH-4" target="MDzE1p1NJwPBbLoG7hzH-6">
          <mxGeometry width="50" height="50" relative="1" as="geometry">
            <mxPoint x="130" y="400" as="sourcePoint" />
            <mxPoint x="180" y="350" as="targetPoint" />
            <Array as="points" />
          </mxGeometry>
        </mxCell>
        <mxCell id="MDzE1p1NJwPBbLoG7hzH-11" value="Pokud není možné vytvořit" style="edgeLabel;html=1;align=center;verticalAlign=middle;resizable=0;points=[];" vertex="1" connectable="0" parent="MDzE1p1NJwPBbLoG7hzH-10">
          <mxGeometry x="0.175" y="1" relative="1" as="geometry">
            <mxPoint x="13" y="14" as="offset" />
          </mxGeometry>
        </mxCell>
        <mxCell id="MDzE1p1NJwPBbLoG7hzH-12" value="Generování reportů" style="text;html=1;align=center;verticalAlign=middle;whiteSpace=wrap;rounded=0;" vertex="1" parent="1">
          <mxGeometry x="130" y="50" width="180" height="30" as="geometry" />
        </mxCell>
      </root>
    </mxGraphModel>
  </diagram>
</mxfile>
